<mxfile host="app.diagrams.net" agent="Mozilla/5.0 (Windows NT 10.0; Win64; x64) AppleWebKit/537.36 (KHTML, like Gecko) Chrome/131.0.0.0 Safari/537.36" version="25.0.3">
  <diagram name="PÃ¡gina-1" id="T3tx6_vQXE-7MqzzyXjM">
    <mxGraphModel dx="2074" dy="772" grid="1" gridSize="10" guides="1" tooltips="1" connect="1" arrows="1" fold="1" page="1" pageScale="1" pageWidth="1169" pageHeight="827" math="0" shadow="0">
      <root>
        <mxCell id="0" />
        <mxCell id="1" parent="0" />
        <mxCell id="bx9MeaZjihgg2yO2Cwyw-12" value="" style="rounded=0;whiteSpace=wrap;html=1;fillStyle=hatch;strokeColor=none;fillColor=#cdeb8b;" vertex="1" parent="1">
          <mxGeometry x="280" y="220" width="560" height="50" as="geometry" />
        </mxCell>
        <mxCell id="bx9MeaZjihgg2yO2Cwyw-1" value="" style="endArrow=classic;html=1;rounded=0;" edge="1" parent="1">
          <mxGeometry width="50" height="50" relative="1" as="geometry">
            <mxPoint x="280" y="480" as="sourcePoint" />
            <mxPoint x="280" y="200" as="targetPoint" />
            <Array as="points">
              <mxPoint x="280" y="340" />
            </Array>
          </mxGeometry>
        </mxCell>
        <mxCell id="bx9MeaZjihgg2yO2Cwyw-2" value="" style="endArrow=classic;html=1;rounded=0;" edge="1" parent="1">
          <mxGeometry width="50" height="50" relative="1" as="geometry">
            <mxPoint x="280" y="480" as="sourcePoint" />
            <mxPoint x="890" y="480" as="targetPoint" />
          </mxGeometry>
        </mxCell>
        <mxCell id="bx9MeaZjihgg2yO2Cwyw-3" value="time (sec.)" style="text;html=1;align=center;verticalAlign=middle;whiteSpace=wrap;rounded=0;" vertex="1" parent="1">
          <mxGeometry x="800" y="490" width="150" height="30" as="geometry" />
        </mxCell>
        <mxCell id="bx9MeaZjihgg2yO2Cwyw-4" value="movil visible ratio (%)" style="text;html=1;align=center;verticalAlign=middle;whiteSpace=wrap;rounded=0;horizontal=1;rotation=-90;" vertex="1" parent="1">
          <mxGeometry x="190" y="320" width="140" height="24" as="geometry" />
        </mxCell>
        <mxCell id="bx9MeaZjihgg2yO2Cwyw-5" value="" style="endArrow=none;dashed=1;html=1;rounded=0;" edge="1" parent="1">
          <mxGeometry width="50" height="50" relative="1" as="geometry">
            <mxPoint x="280" y="270" as="sourcePoint" />
            <mxPoint x="840" y="270" as="targetPoint" />
          </mxGeometry>
        </mxCell>
        <mxCell id="bx9MeaZjihgg2yO2Cwyw-6" value="" style="endArrow=none;dashed=1;html=1;rounded=0;" edge="1" parent="1">
          <mxGeometry width="50" height="50" relative="1" as="geometry">
            <mxPoint x="280" y="390" as="sourcePoint" />
            <mxPoint x="840" y="390" as="targetPoint" />
          </mxGeometry>
        </mxCell>
        <mxCell id="bx9MeaZjihgg2yO2Cwyw-7" value="" style="endArrow=none;dashed=1;html=1;rounded=0;" edge="1" parent="1">
          <mxGeometry width="50" height="50" relative="1" as="geometry">
            <mxPoint x="280" y="440" as="sourcePoint" />
            <mxPoint x="840" y="440" as="targetPoint" />
          </mxGeometry>
        </mxCell>
        <mxCell id="bx9MeaZjihgg2yO2Cwyw-8" value="normal limit ratio" style="text;html=1;align=right;verticalAlign=middle;whiteSpace=wrap;rounded=0;" vertex="1" parent="1">
          <mxGeometry x="730" y="240" width="110" height="30" as="geometry" />
        </mxCell>
        <mxCell id="bx9MeaZjihgg2yO2Cwyw-10" value="early alert limit ratio" style="text;html=1;align=right;verticalAlign=middle;whiteSpace=wrap;rounded=0;" vertex="1" parent="1">
          <mxGeometry x="680" y="360" width="160" height="30" as="geometry" />
        </mxCell>
        <mxCell id="bx9MeaZjihgg2yO2Cwyw-11" value="fallen alert limit ratio" style="text;html=1;align=right;verticalAlign=middle;whiteSpace=wrap;rounded=0;" vertex="1" parent="1">
          <mxGeometry x="680" y="410" width="160" height="30" as="geometry" />
        </mxCell>
        <mxCell id="bx9MeaZjihgg2yO2Cwyw-13" value="" style="rounded=0;whiteSpace=wrap;html=1;fillStyle=hatch;strokeColor=none;fillColor=#ffff88;" vertex="1" parent="1">
          <mxGeometry x="280" y="270" width="560" height="120" as="geometry" />
        </mxCell>
        <mxCell id="bx9MeaZjihgg2yO2Cwyw-14" value="" style="rounded=0;whiteSpace=wrap;html=1;fillStyle=hatch;strokeColor=none;fillColor=#ffcc99;" vertex="1" parent="1">
          <mxGeometry x="280" y="390" width="560" height="50" as="geometry" />
        </mxCell>
        <mxCell id="bx9MeaZjihgg2yO2Cwyw-15" value="" style="rounded=0;whiteSpace=wrap;html=1;fillStyle=hatch;strokeColor=none;fillColor=#f8cecc;" vertex="1" parent="1">
          <mxGeometry x="280" y="440" width="560" height="40" as="geometry" />
        </mxCell>
      </root>
    </mxGraphModel>
  </diagram>
</mxfile>
